<svg width="64" height="79" viewBox="0 0 64 79" fill="none" xmlns="http://www.w3.org/2000/svg">
<path opacity="0.74" d="M4 78V78.75H3.25V78H4ZM8 4C8 6.20914 6.20914 8 4 8C1.79086 8 3.8147e-06 6.20914 3.8147e-06 4C3.8147e-06 1.79086 1.79086 0 4 0C6.20914 0 8 1.79086 8 4ZM61 78.75C60.5858 78.75 60.25 78.4142 60.25 78C60.25 77.5858 60.5858 77.25 61 77.25V78V78.75ZM55 77.25C55.4142 77.25 55.75 77.5858 55.75 78C55.75 78.4142 55.4142 78.75 55 78.75V78V77.25ZM49 78.75C48.5858 78.75 48.25 78.4142 48.25 78C48.25 77.5858 48.5858 77.25 49 77.25V78V78.75ZM43 77.25C43.4142 77.25 43.75 77.5858 43.75 78C43.75 78.4142 43.4142 78.75 43 78.75V78V77.25ZM37 78.75C36.5858 78.75 36.25 78.4142 36.25 78C36.25 77.5858 36.5858 77.25 37 77.25V78V78.75ZM31 77.25C31.4142 77.25 31.75 77.5858 31.75 78C31.75 78.4142 31.4142 78.75 31 78.75V78V77.25ZM25 78.75C24.5858 78.75 24.25 78.4142 24.25 78C24.25 77.5858 24.5858 77.25 25 77.25V78V78.75ZM19 77.25C19.4142 77.25 19.75 77.5858 19.75 78C19.75 78.4142 19.4142 78.75 19 78.75V78V77.25ZM13 78.75C12.5858 78.75 12.25 78.4142 12.25 78C12.25 77.5858 12.5858 77.25 13 77.25V78V78.75ZM7 77.25C7.41422 77.25 7.75 77.5858 7.75 78C7.75 78.4142 7.41422 78.75 7 78.75V78V77.25ZM3.25 75.214C3.25 74.7998 3.58579 74.464 4 74.464C4.41422 74.464 4.75 74.7998 4.75 75.214H4H3.25ZM4.75 69.6421C4.75 70.0563 4.41422 70.3921 4 70.3921C3.58579 70.3921 3.25 70.0563 3.25 69.6421H4H4.75ZM3.25 64.0702C3.25 63.656 3.58579 63.3202 4 63.3202C4.41422 63.3202 4.75 63.656 4.75 64.0702H4H3.25ZM4.75 58.4983C4.75 58.9125 4.41422 59.2483 4 59.2483C3.58579 59.2483 3.25 58.9125 3.25 58.4983H4H4.75ZM3.25 52.9264C3.25 52.5122 3.58579 52.1764 4 52.1764C4.41422 52.1764 4.75 52.5122 4.75 52.9264H4H3.25ZM4.75 47.3545C4.75 47.7687 4.41422 48.1045 4 48.1045C3.58579 48.1045 3.25 47.7687 3.25 47.3545H4H4.75ZM3.25 41.7826C3.25 41.3684 3.58579 41.0326 4 41.0326C4.41422 41.0326 4.75 41.3684 4.75 41.7826H4H3.25ZM4.75 36.2107C4.75 36.6249 4.41422 36.9607 4 36.9607C3.58579 36.9607 3.25 36.6249 3.25 36.2107H4H4.75ZM3.25 30.6388C3.25 30.2245 3.58579 29.8888 4 29.8888C4.41422 29.8888 4.75 30.2245 4.75 30.6388H4H3.25ZM4.75 25.0668C4.75 25.4811 4.41422 25.8168 4 25.8168C3.58579 25.8168 3.25 25.4811 3.25 25.0668H4H4.75ZM3.25 19.4949C3.25 19.0807 3.58579 18.7449 4 18.7449C4.41422 18.7449 4.75 19.0807 4.75 19.4949H4H3.25ZM4.75 13.923C4.75 14.3372 4.41422 14.673 4 14.673C3.58579 14.673 3.25 14.3372 3.25 13.923H4H4.75ZM3.25 9.35279C3.25 8.93858 3.58579 8.60279 4 8.60279C4.41422 8.60279 4.75 8.93858 4.75 9.35279H4H3.25ZM4.75 5.78426C4.75 6.19848 4.41422 6.53426 4 6.53426C3.58579 6.53426 3.25 6.19848 3.25 5.78426H4H4.75ZM64 78V78.75H61V78V77.25H64V78ZM55 78V78.75H49V78V77.25H55V78ZM43 78V78.75H37V78V77.25H43V78ZM31 78V78.75H25V78V77.25H31V78ZM19 78V78.75H13V78V77.25H19V78ZM7 78V78.75H4V78V77.25H7V78ZM4 78H3.25V75.214H4H4.75V78H4ZM4 69.6421H3.25V64.0702H4H4.75V69.6421H4ZM4 58.4983H3.25V52.9264H4H4.75V58.4983H4ZM4 47.3545H3.25V41.7826H4H4.75V47.3545H4ZM4 36.2107H3.25V30.6388H4H4.75V36.2107H4ZM4 25.0668H3.25V19.4949H4H4.75V25.0668H4ZM4 13.923H3.25V11.1371H4H4.75V13.923H4ZM4 11.1371H3.25V9.35279H4H4.75V11.1371H4ZM4 5.78426H3.25V4H4H4.75V5.78426H4Z" fill="url(#paint0_linear_1_3498)"/>
<defs>
<linearGradient id="paint0_linear_1_3498" x1="9.04853" y1="29.2974" x2="33.2477" y2="76.8513" gradientUnits="userSpaceOnUse">
<stop stop-color="#8687FF"/>
<stop offset="1" stop-color="#4B4DDD" stop-opacity="0.45"/>
</linearGradient>
</defs>
</svg>
